# xmcd
#
# Track frame offsets:
#	150
#	15195
#	30460
#	45808
#	61035
#	75345
#	89735
#	105535
#	120065
#	133958
#	153520
#	167233
#	182875
#	196160
#	207845
#	218720
#	233588
#	248018
#	261285
#	274898
#
# Disc length: 3854 seconds
#
# Revision: 0
# Processed by: cddbd v1.4PL0 Copyright (c) Steve Scherf et al.
# Submitted via: EasyCDDAExtractor 4.5.0.2
#
DISCID=fa0f0c14
DTITLE=Tolis Voskopoulos - Gia Panta
DYEAR=1990
DGENRE=Greek Old Songs
TTITLE0=M` emathes n` agapo
TTITLE1=Tou xorismou i ora
TTITLE2=Agonia
TTITLE3=Ego ke Esi
TTITLE4=Exases to Treno
TTITLE5=Deilino mou ferane to diko sou gramma
TTITLE6=San tis Gardenias ton Sntho
TTITLE7=Oi Anamniseis
TTITLE8=Palia Agapi
TTITLE9=Apokoimithika
TTITLE10=Se Monopati Makrino
TTITLE11=Oses vro kardies tha kapso
TTITLE12=Etsi eine Barba Gianni
TTITLE13=Melagxolia
TTITLE14=Na Stamatisoume tora den ginetai
TTITLE15=Exo mian arrevoniara
TTITLE16=Kathe pou vradiazei
TTITLE17=Oi Ouranoi
TTITLE18=Deilino Se Gnorisa
TTITLE19=S' Agapo
EXTD=
EXTT0=
EXTT1=
EXTT2=
EXTT3=
EXTT4=
EXTT5=
EXTT6=
EXTT7=
EXTT8=
EXTT9=
EXTT10=
EXTT11=
EXTT12=
EXTT13=
EXTT14=
EXTT15=
EXTT16=
EXTT17=
EXTT18=
EXTT19=
PLAYORDER=
